<svg width="163" height="82" viewBox="0 0 163 82" fill="none" xmlns="http://www.w3.org/2000/svg">
<g id="pol">
<path id="pol1" d="M66.7152 37.9271C68.68 39.0843 68.6861 41.9241 66.7263 43.0902L16.4332 73.0145C14.4359 74.2028 11.9044 72.7671 11.8994 70.4431L11.7716 10.8216C11.7666 8.4976 14.2919 7.05045 16.2943 8.22981L66.7152 37.9271Z" fill="#1FAF95"/>
<path id="pol2" d="M110.162 37.9271C112.127 39.0843 112.133 41.9241 110.173 43.0902L59.8804 73.0145C57.8831 74.2028 55.3516 72.7671 55.3466 70.4431L55.2188 10.8216C55.2138 8.4976 57.7391 7.05045 59.7415 8.22981L110.162 37.9271Z" fill="#104B41"/>
<path id="pol3" d="M158.547 37.9271C160.512 39.0843 160.518 41.9241 158.558 43.0902L108.265 73.0145C106.268 74.2028 103.736 72.7671 103.731 70.4431L103.603 10.8216C103.598 8.4976 106.124 7.05045 108.126 8.22981L158.547 37.9271Z" fill="#1FAF95"/>
</g>
</svg>
